<svg xmlns="http://www.w3.org/2000/svg" viewBox="0 0 259.38 30.04"><defs><style>.cls-1{fill:aqua;}.cls-2{fill:#fff;}</style></defs><g id="Layer_2" data-name="Layer 2"><g id="Layer_1-2" data-name="Layer 1"><polygon points="0.5 29.54 250.42 29.54 258.88 21.09 258.88 0.5 0.5 0.5 0.5 16.96 0.5 29.54"/><path class="cls-1" d="M250.62,30H0V0H259.38V21.29ZM1,29H250.21l8.17-8.16V1H1Z"/><path class="cls-2" d="M11.56,10.15h3.95a4,4,0,0,1,3.07,1.08,4.91,4.91,0,0,1,1,3.38,5.55,5.55,0,0,1-.33,2,3.18,3.18,0,0,1-1,1.37,3.14,3.14,0,0,1-1.09.59,6,6,0,0,1-1.59.17h-4Zm3.91,1.5h-2.1v5.61h2.1a2,2,0,0,0,1.66-.6,3.9,3.9,0,0,0,.46-2.21,3.89,3.89,0,0,0-.46-2.2A2,2,0,0,0,15.47,11.65Z"/><path class="cls-2" d="M22.66,14.37a4.56,4.56,0,0,1,1.06-3.31A4.37,4.37,0,0,1,27,10a4.3,4.3,0,0,1,3.24,1.09,4.74,4.74,0,0,1,1.05,3.38,4.75,4.75,0,0,1-1.05,3.39A4.26,4.26,0,0,1,27,18.94a4.29,4.29,0,0,1-3.26-1.11A4.92,4.92,0,0,1,22.66,14.37ZM27,11.45a2.12,2.12,0,0,0-1.75.73,3.55,3.55,0,0,0-.57,2.2,3.9,3.9,0,0,0,.56,2.33,2,2,0,0,0,1.76.74,2.08,2.08,0,0,0,1.75-.73,3.7,3.7,0,0,0,.57-2.27,3.65,3.65,0,0,0-.57-2.26A2.09,2.09,0,0,0,27,11.45Z"/><path class="cls-2" d="M33.92,10.15h1.94l2,6.62,1.68-6.62h2.14l1.93,6.62,1.86-6.62h1.86l-2.66,8.61H42.44L40.6,12.33,39,18.76H36.78Z"/><path class="cls-2" d="M50.56,10.15h2.29l3.53,6.18-.09-6.18h1.85v8.61H56l-3.7-6.51.08,6.51H50.56Z"/><path class="cls-2" d="M65.71,18.76a6.06,6.06,0,0,1-1.79-.2,2.66,2.66,0,0,1-1.05-.7,2.39,2.39,0,0,1-.6-1,5.39,5.39,0,0,1-.18-1.58V10.15H63.9v5.06A5.18,5.18,0,0,0,64,16.27a1.06,1.06,0,0,0,.23.5,1.37,1.37,0,0,0,.63.43,3.21,3.21,0,0,0,1,.13H68v1.43Z"/><path class="cls-2" d="M70.38,14.37a4.56,4.56,0,0,1,1.07-3.31,5.37,5.37,0,0,1,6.47,0,4.74,4.74,0,0,1,1,3.38,4.75,4.75,0,0,1-1,3.39,5.32,5.32,0,0,1-6.49,0A4.87,4.87,0,0,1,70.38,14.37Zm4.3-2.92a2.12,2.12,0,0,0-1.74.73,3.55,3.55,0,0,0-.57,2.2,3.9,3.9,0,0,0,.55,2.33,2.06,2.06,0,0,0,1.76.74,2.1,2.1,0,0,0,1.76-.73A3.7,3.7,0,0,0,77,14.45a3.65,3.65,0,0,0-.57-2.26A2.11,2.11,0,0,0,74.68,11.45Z"/><path class="cls-2" d="M85.08,10.15H87l3.67,8.61h-2l-.79-2.05H84.13l-.77,2.05H81.44ZM86,11.86l-1.26,3.31h2.57Z"/><path class="cls-2" d="M93.68,10.15h3.95a4,4,0,0,1,3.07,1.08,4.91,4.91,0,0,1,1,3.38,5.55,5.55,0,0,1-.33,2,3.26,3.26,0,0,1-1,1.37,3.14,3.14,0,0,1-1.09.59,6,6,0,0,1-1.59.17h-4Zm3.91,1.5h-2.1v5.61h2.1a2,2,0,0,0,1.66-.6,3.9,3.9,0,0,0,.46-2.21,3.89,3.89,0,0,0-.46-2.2A2,2,0,0,0,97.59,11.65Z"/><path class="cls-2" d="M115.93,11.62a1.84,1.84,0,0,0-1.62.71,4.26,4.26,0,0,0-.49,2.35,3.19,3.19,0,0,0,.47,2,2,2,0,0,0,1.64.58h3v1.5h-3.07a6.06,6.06,0,0,1-1.59-.17,3.29,3.29,0,0,1-2.08-2,5.55,5.55,0,0,1-.33-2,4.91,4.91,0,0,1,1-3.38,4,4,0,0,1,3.07-1.08h3v1.47Z"/><path class="cls-2" d="M122.22,17.26h1.44v1.5h-1.44Z"/><path class="cls-2" d="M129.9,18.76l-3.76-8.61h2.06l2.59,6.41,2.65-6.41h1.93l-3.6,8.61Z"/><path class="cls-2" d="M136.26,17.26h1.45v1.5h-1.45Z"/><path class="cls-2" d="M151.33,10.15a9.88,9.88,0,0,0-1.1,2.45,9.5,9.5,0,0,0,0,5.25,9.88,9.88,0,0,0,1.1,2.45h-1.14a10.73,10.73,0,0,1-1.41-2.57,7.19,7.19,0,0,1-.48-2.51,7.18,7.18,0,0,1,.48-2.5,10.73,10.73,0,0,1,1.41-2.57Z"/><path class="cls-2" d="M155.08,10.15h4.46a3.49,3.49,0,0,1,2.28.62,2.49,2.49,0,0,1,.73,2,2.67,2.67,0,0,1-.45,1.61,2,2,0,0,1-1.29.81l2.15,3.6h-2L159,15.37h-2.13v3.39h-1.81Zm4,1.53h-2.22v2.17h2.22a2.23,2.23,0,0,0,1.25-.25.93.93,0,0,0,.35-.84.94.94,0,0,0-.34-.83A2.24,2.24,0,0,0,159.11,11.68Z"/><path class="cls-2" d="M170,11.65a2,2,0,0,0-1.49.49,2.2,2.2,0,0,0-.55,1.51h5v1.5h-5a2.32,2.32,0,0,0,.47,1.62,2.12,2.12,0,0,0,1.58.49h3v1.5h-3.06a6,6,0,0,1-1.59-.17,3.14,3.14,0,0,1-1.09-.59,3.1,3.1,0,0,1-1-1.37,5.55,5.55,0,0,1-.33-2,4.91,4.91,0,0,1,1-3.38A4,4,0,0,1,170,10.15h3v1.5Z"/><path class="cls-2" d="M184.27,11.68h-4.48a1.7,1.7,0,0,0-1.06.27,1.05,1.05,0,0,0-.33.86.83.83,0,0,0,.29.7,1.29,1.29,0,0,0,.85.24h2.4a3.12,3.12,0,0,1,2.11.56,2.4,2.4,0,0,1,.64,1.87,2.47,2.47,0,0,1-.73,2,3.52,3.52,0,0,1-2.29.62h-4.82V17.23h4.54a2,2,0,0,0,1.09-.23.86.86,0,0,0,.31-.75.88.88,0,0,0-.29-.76,1.57,1.57,0,0,0-1-.23h-2.14a3.28,3.28,0,0,1-2.18-.6,2.34,2.34,0,0,1-.68-1.88,2.53,2.53,0,0,1,.72-2,3.45,3.45,0,0,1,2.3-.63h4.74Z"/><path class="cls-2" d="M190.22,10.15V15.3a2.52,2.52,0,0,0,.44,1.69,2.58,2.58,0,0,0,3,0,2.53,2.53,0,0,0,.43-1.69V10.15h1.81v5.2a7,7,0,0,1-.12,1.46,2,2,0,0,1-.38.86,3,3,0,0,1-1.3.9,5.73,5.73,0,0,1-1.94.28,5.83,5.83,0,0,1-1.95-.28,3,3,0,0,1-1.3-.9,2,2,0,0,1-.38-.84,7.89,7.89,0,0,1-.11-1.48v-5.2Z"/><path class="cls-2" d="M200.06,10.15h2.66l2.2,6.61,2.2-6.61h2.64v8.61H208l.14-6.71-2.2,6.71H204L201.72,12l.19,6.78h-1.85Z"/><path class="cls-2" d="M217.49,11.65a2,2,0,0,0-1.48.49,2.2,2.2,0,0,0-.55,1.51h5v1.5h-5a2.32,2.32,0,0,0,.47,1.62,2.11,2.11,0,0,0,1.57.49h3v1.5h-3.06a6.09,6.09,0,0,1-1.6-.17,3.23,3.23,0,0,1-1.09-.59,3.16,3.16,0,0,1-1-1.37,5.55,5.55,0,0,1-.33-2,4.91,4.91,0,0,1,1-3.38,4,4,0,0,1,3.07-1.08h3v1.5Z"/><path class="cls-2" d="M224,10.15h1.14a10.73,10.73,0,0,1,1.41,2.57,7.18,7.18,0,0,1,.48,2.5,7.19,7.19,0,0,1-.48,2.51,10.73,10.73,0,0,1-1.41,2.57H224a9.46,9.46,0,0,0,1.1-2.44,9.2,9.2,0,0,0,.37-2.64,9.47,9.47,0,0,0-.36-2.62A9.72,9.72,0,0,0,224,10.15Z"/><path class="cls-2" d="M236.11,13.1H246L241,20.17ZM246,10.28h-9.89v1.16H246Z"/></g></g></svg>